<?xml version="1.0" standalone="no"?>
<!DOCTYPE svg PUBLIC "-//W3C//DTD SVG 20010904//EN"
 "http://www.w3.org/TR/2001/REC-SVG-20010904/DTD/svg10.dtd">
<svg version="1.0" xmlns="http://www.w3.org/2000/svg"
 width="640.000000pt" height="362.000000pt" viewBox="0 0 640.000000 362.000000"
 preserveAspectRatio="xMidYMid meet">

<g transform="translate(0.000000,362.000000) scale(0.100000,-0.100000)"
fill="#000000" stroke="none">
<path d="M2190 2620 c-219 -14 -420 -66 -635 -165 l-80 -37 -41 22 c-39 22
-48 22 -200 17 -168 -6 -204 -11 -204 -32 0 -17 125 -47 176 -43 34 3 30 5
-38 18 -130 23 -96 40 84 40 106 0 120 -2 167 -27 28 -14 50 -28 48 -30 -3 -2
-65 -12 -138 -23 -292 -43 -474 -100 -591 -186 -64 -48 -88 -92 -138 -263 -46
-158 -48 -207 -10 -245 l21 -21 -16 39 c-19 46 -19 48 47 239 64 185 90 218
222 282 180 87 448 140 946 185 210 20 261 29 130 24 -141 -6 -364 -23 -407
-30 -60 -11 -34 11 70 57 186 84 442 152 632 166 44 3 89 9 100 14 24 9 23 9
-145 -1z"/>
<path d="M2863 2560 c-135 -14 -225 -56 -329 -150 l-41 -38 -124 -1 c-232 -3
-393 -46 -481 -131 -42 -41 -48 -51 -48 -88 0 -90 102 -152 251 -152 154 0
229 38 393 198 l105 103 81 -3 81 -3 -31 -42 c-63 -86 -19 -117 156 -111 83 2
106 7 123 22 34 31 11 46 -70 46 -78 0 -82 6 -43 57 22 30 30 33 77 34 66 1
97 10 111 31 15 24 -1 37 -49 39 -22 1 -43 4 -48 6 -4 3 16 37 44 78 29 40 49
80 46 88 -10 26 -68 31 -204 17z m17 -79 c0 -16 -70 -100 -87 -105 -27 -8
-103 -5 -108 5 -8 12 92 88 123 95 15 3 32 7 37 9 19 7 35 5 35 -4z m-550
-273 c-106 -102 -151 -127 -225 -128 -160 0 -148 135 17 188 89 29 92 30 203
30 l100 1 -95 -91z"/>
<path d="M3388 2558 c-19 -6 -68 -65 -158 -189 -72 -99 -133 -186 -136 -194
-10 -24 39 -40 83 -27 28 8 54 8 105 0 115 -20 226 15 269 86 27 45 24 77 -11
111 -25 24 -41 30 -90 33 -33 2 -60 8 -60 12 0 4 20 35 45 69 50 68 54 85 26
101 -23 12 -37 12 -73 -2z m50 -250 c14 -18 -1 -51 -34 -77 -22 -17 -39 -21
-78 -19 -29 2 -51 8 -54 16 -2 7 14 30 36 52 33 33 46 40 80 40 22 0 44 -6 50
-12z"/>
<path d="M3679 2393 c-38 -42 -79 -100 -79 -112 0 -18 40 -33 69 -26 16 3 40
19 54 35 18 20 32 27 47 23 20 -5 19 -8 -15 -36 -45 -37 -46 -78 -2 -111 25
-19 42 -21 147 -21 100 0 122 3 137 17 28 28 2 42 -85 46 -80 4 -105 14 -96
37 9 23 78 62 121 70 23 3 48 13 55 22 24 29 -16 43 -127 43 -89 0 -104 3
-120 20 -27 30 -76 26 -106 -7z"/>
<path d="M4220 2371 c-89 -28 -140 -77 -140 -132 0 -74 84 -103 281 -98 125 4
159 16 139 49 -7 12 -39 16 -145 20 -74 3 -134 9 -133 14 2 4 45 10 97 12 113
5 156 24 156 68 0 50 -41 71 -143 73 -48 1 -98 -1 -112 -6z m135 -66 c0 -5
-24 -11 -52 -13 -49 -3 -71 9 -40 22 20 8 92 2 92 -9z"/>
<path d="M4648 2360 c-14 -11 -47 -51 -73 -90 -47 -68 -48 -70 -30 -89 29 -33
80 -44 164 -37 83 8 83 8 192 0 85 -6 137 4 153 28 15 24 4 31 -59 36 -30 2
-55 9 -55 14 0 5 19 33 41 63 44 59 45 81 5 91 -44 11 -79 -10 -131 -78 -27
-36 -60 -71 -73 -77 -27 -13 -89 -15 -96 -3 -3 5 15 37 39 72 33 48 41 67 33
77 -16 20 -82 16 -110 -7z"/>
<path d="M910 2130 c25 -4 140 -13 255 -19 366 -20 481 -34 446 -55 -6 -4
-176 -10 -378 -14 -296 -5 -349 -8 -273 -15 52 -4 231 -6 397 -5 317 3 341 7
317 46 -18 28 -72 40 -230 51 -201 14 -592 23 -534 11z"/>
<path d="M1870 1960 c-398 -9 -498 -26 -648 -112 -58 -33 -200 -163 -190 -173
3 -3 26 14 50 38 60 59 124 102 211 142 149 68 128 66 1012 75 2244 24 2302
24 1925 31 -457 8 -1950 7 -2360 -1z"/>
<path d="M737 1931 c-16 -6 -17 -9 -5 -19 21 -17 269 -28 294 -14 15 9 -10 11
-108 12 -70 0 -129 4 -133 9 -3 5 7 12 22 14 20 3 17 4 -12 5 -22 0 -48 -3
-58 -7z"/>
<path d="M1469 1800 c-35 -44 -65 -85 -67 -90 -6 -18 45 -10 63 10 12 13 31
20 57 20 31 0 38 -3 38 -20 0 -16 7 -20 30 -20 34 0 35 7 24 119 l-7 61 -37 0
c-34 0 -41 -6 -101 -80z m97 24 c-3 -9 -6 -24 -6 -35 0 -14 -7 -19 -25 -19
-30 0 -31 4 -4 41 22 31 45 40 35 13z"/>
<path d="M1875 1871 c-3 -6 -16 -39 -30 -75 -22 -58 -23 -67 -10 -80 22 -22
100 -31 146 -17 35 11 43 19 65 69 14 31 28 69 31 85 5 24 2 27 -20 27 -20 0
-28 -9 -45 -47 -11 -27 -23 -58 -27 -71 -10 -35 -47 -55 -79 -43 -14 6 -26 12
-26 14 0 2 11 31 25 65 14 34 25 66 25 72 0 13 -47 13 -55 1z"/>
<path d="M2277 1874 c-12 -12 4 -24 34 -24 16 0 29 -2 29 -4 0 -2 -13 -36 -30
-75 l-29 -72 30 3 c28 3 34 10 61 75 29 69 32 72 66 75 19 2 37 9 40 16 3 9
-21 12 -95 12 -55 0 -103 -3 -106 -6z"/>
<path d="M2703 1870 c-28 -11 -61 -63 -69 -108 -9 -49 12 -66 84 -67 74 0 106
17 132 70 28 58 26 93 -6 105 -31 12 -111 12 -141 0z m101 -53 c-2 -54 -32
-91 -77 -95 -34 -3 -37 -1 -37 23 0 30 34 101 52 109 7 2 24 4 38 3 22 -2 25
-6 24 -40z"/>
<path d="M3223 1868 c-11 -19 -63 -148 -63 -159 0 -5 13 -9 29 -9 23 0 31 6
42 36 14 35 16 36 74 39 50 3 64 8 82 30 42 48 3 75 -108 75 -27 0 -51 -5 -56
-12z m112 -38 c0 -22 -5 -25 -37 -28 -40 -3 -46 5 -27 39 16 31 64 22 64 -11z"/>
<path d="M3601 1799 c-17 -44 -31 -85 -31 -90 0 -5 38 -9 85 -9 92 0 118 17
33 22 -47 3 -53 5 -50 23 5 28 20 35 75 35 26 0 47 5 47 10 0 6 -21 10 -46 10
-41 0 -45 2 -42 23 3 19 10 23 57 27 31 3 56 10 59 18 3 9 -17 12 -76 12 l-80
0 -31 -81z"/>
<path d="M4010 1853 c-40 -38 -61 -116 -38 -139 25 -25 106 -29 147 -7 19 10
37 24 39 31 5 17 -43 15 -58 -3 -7 -8 -28 -15 -46 -15 -29 0 -34 4 -34 23 0
12 10 43 23 67 18 37 27 46 54 48 24 2 33 -1 38 -17 4 -14 15 -21 30 -21 33 0
39 16 15 40 -16 16 -33 20 -80 20 -51 0 -64 -4 -90 -27z"/>
<path d="M4464 1848 c-44 -47 -114 -135 -114 -142 0 -3 13 -6 30 -6 19 0 33 7
40 20 8 15 21 20 49 20 30 0 40 -4 44 -20 3 -14 14 -20 31 -20 l27 0 -3 88 -3
87 -35 3 c-29 2 -41 -3 -66 -30z m56 -38 c0 -31 -16 -45 -44 -38 -13 2 -12 8
5 36 26 40 39 41 39 2z"/>
<path d="M4829 1861 c-31 -26 -19 -47 45 -81 56 -30 58 -54 4 -58 -29 -3 -38
1 -43 17 -4 14 -15 21 -31 21 -21 0 -25 -4 -22 -22 5 -33 44 -50 105 -44 67 6
93 20 93 51 0 21 -10 30 -55 52 -63 31 -70 56 -18 61 24 2 34 -2 43 -17 11
-22 44 -28 55 -10 4 5 -1 19 -11 30 -25 27 -132 27 -165 0z"/>
<path d="M1530 1388 c-33 -53 -43 -100 -38 -179 5 -79 39 -169 64 -169 18 0
18 17 -2 71 -20 56 -20 180 1 238 26 76 12 99 -25 39z"/>
<path d="M1706 1395 c-9 -14 -28 -31 -42 -37 -15 -7 -24 -19 -24 -35 0 -27 9
-29 36 -8 10 8 22 15 26 15 4 0 9 -46 10 -102 3 -95 4 -103 23 -103 19 0 20 7
20 145 0 125 -2 145 -16 148 -9 2 -24 -9 -33 -23z"/>
<path d="M1927 1393 c-14 -16 -36 -35 -48 -44 -15 -11 -20 -21 -16 -33 7 -17
9 -17 32 -2 35 23 47 12 45 -43 -4 -124 -1 -151 19 -151 11 0 21 8 24 18 3 14
2 172 -2 260 -1 30 -22 28 -54 -5z"/>
<path d="M2088 1415 c-3 -3 3 -31 13 -62 28 -84 20 -249 -14 -291 -5 -7 -7
-16 -3 -19 14 -14 42 15 64 68 31 75 28 184 -8 254 -24 46 -40 62 -52 50z"/>
<path d="M2377 1404 c-34 -18 -54 -63 -35 -76 21 -13 36 -9 43 11 7 23 36 32
59 19 32 -18 18 -56 -41 -119 -69 -72 -87 -100 -70 -111 17 -11 159 -10 176 1
8 5 11 16 6 30 -5 18 -14 21 -63 21 l-57 0 53 51 c63 60 75 87 61 128 -20 56
-77 75 -132 45z"/>
<path d="M2591 1397 c-5 -13 -12 -53 -16 -90 -7 -63 -6 -67 13 -67 11 0 25 6
31 14 13 15 48 13 64 -3 5 -5 7 -21 5 -37 -2 -24 -8 -30 -32 -32 -16 -2 -33 1
-39 7 -16 16 -57 14 -57 -3 0 -18 45 -54 76 -62 31 -8 81 21 100 58 13 26 14
38 5 70 -13 42 -58 74 -93 65 -23 -6 -36 19 -19 36 6 6 30 11 53 12 39 1 43 4
46 28 3 27 3 27 -63 27 -59 0 -66 -2 -74 -23z"/>
<path d="M2844 1333 c-56 -86 -78 -136 -66 -147 3 -3 29 -6 58 -6 50 0 53 -1
56 -27 4 -39 42 -39 46 -2 2 17 11 29 23 32 25 7 25 33 -1 40 -18 5 -20 14
-20 101 0 89 -1 96 -20 96 -14 0 -36 -26 -76 -87z m46 -63 l0 -50 -35 0 c-19
0 -35 2 -35 5 0 13 58 95 67 95 1 0 3 -22 3 -50z"/>
<path d="M3047 1413 c-3 -5 -10 -41 -17 -81 -15 -89 -6 -106 40 -79 22 14 34
15 49 7 25 -13 36 -47 21 -65 -14 -17 -56 -20 -65 -5 -3 6 -19 10 -35 10 -24
0 -27 -3 -23 -21 8 -31 62 -61 97 -54 36 6 60 27 76 66 25 59 -23 133 -83 127
-27 -2 -31 0 -29 17 5 28 7 28 56 27 45 -2 62 12 50 43 -5 11 -22 15 -69 15
-35 0 -66 -3 -68 -7z"/>
<path d="M3380 1395 c0 -14 3 -26 8 -26 6 -1 61 -5 101 -8 9 -1 10 -5 3 -13
-25 -31 -53 -92 -67 -148 -16 -63 -14 -80 10 -80 19 0 31 25 39 78 7 44 57
155 76 167 5 3 10 17 10 31 0 24 -1 24 -90 24 -89 0 -90 0 -90 -25z"/>
<path d="M3607 1413 c-9 -9 -9 -43 1 -44 4 0 28 -2 54 -3 26 -1 49 -4 52 -6 2
-3 -12 -38 -31 -78 -42 -85 -51 -157 -19 -157 15 0 22 14 36 71 9 40 32 97 54
132 21 35 35 69 32 77 -4 12 -25 15 -89 15 -46 0 -87 -3 -90 -7z"/>
<path d="M3868 1397 c-36 -28 -42 -71 -11 -75 14 -2 23 3 28 16 7 25 24 32 53
21 41 -15 28 -53 -43 -129 -36 -38 -65 -78 -65 -90 0 -18 6 -20 83 -20 93 0
112 8 102 39 -5 18 -14 21 -63 21 l-57 0 52 49 c29 27 57 60 62 73 15 39 2 78
-33 99 -41 25 -75 24 -108 -4z"/>
<path d="M4089 1391 c-33 -33 -37 -58 -12 -68 11 -4 22 1 31 15 9 14 25 22 44
22 57 0 46 -59 -22 -117 -48 -42 -86 -101 -73 -114 5 -5 48 -9 94 -7 83 3 84
3 87 31 3 27 2 27 -52 27 -31 0 -56 2 -56 5 0 2 21 24 46 47 25 23 51 54 56
68 15 39 2 84 -31 103 -43 25 -78 21 -112 -12z"/>
<path d="M3240 1235 c0 -24 3 -25 55 -25 52 0 55 1 55 25 0 24 -3 25 -55 25
-52 0 -55 -1 -55 -25z"/>
</g>
</svg>
