<?xml version="1.0" standalone="no"?>
<!DOCTYPE svg PUBLIC "-//W3C//DTD SVG 20010904//EN"
 "http://www.w3.org/TR/2001/REC-SVG-20010904/DTD/svg10.dtd">
<svg version="1.0" xmlns="http://www.w3.org/2000/svg"
 width="640.000000pt" height="355.000000pt" viewBox="0 0 640.000000 355.000000"
 preserveAspectRatio="xMidYMid meet">

<g transform="translate(0.000000,355.000000) scale(0.100000,-0.100000)"
fill="#000000" stroke="none">
<path d="M2152 2610 c-51 -5 -96 -11 -100 -15 -4 -3 34 -4 83 0 204 13 230 14
205 5 -14 -4 -50 -9 -80 -10 -48 -2 -122 -17 -95 -19 6 0 100 6 210 14 110 8
206 15 213 15 7 0 10 5 7 10 -7 12 -300 11 -443 0z"/>
<path d="M1941 2579 c-24 -5 -46 -11 -49 -14 -9 -9 41 -4 93 10 56 14 24 18
-44 4z"/>
<path d="M1999 2550 c-102 -21 -203 -50 -197 -55 2 -2 31 3 63 12 33 8 110 26
170 38 61 13 97 23 80 23 -16 1 -69 -8 -116 -18z"/>
<path d="M1805 2544 c-67 -20 -136 -46 -132 -50 1 -2 50 12 107 31 103 33 122
48 25 19z"/>
<path d="M2910 2553 c0 -5 27 -8 60 -8 33 0 60 3 60 8 0 4 -27 7 -60 7 -33 0
-60 -3 -60 -7z"/>
<path d="M3375 2544 c-19 -10 -78 -82 -164 -201 -136 -188 -145 -208 -100
-221 8 -2 5 2 -5 10 -23 18 -33 0 126 220 123 170 131 178 176 192 32 10 39
15 22 15 -14 0 -38 -6 -55 -15z"/>
<path d="M2765 2535 c-53 -17 -25 -18 50 -1 48 11 53 14 25 14 -19 0 -53 -5
-75 -13z"/>
<path d="M3053 2539 c26 -15 22 -29 -34 -107 -28 -40 -47 -73 -42 -74 4 0 13
-2 18 -3 6 -2 25 -3 43 -4 42 -1 54 -27 23 -53 -13 -10 -18 -18 -12 -18 20 0
51 39 44 56 -7 18 -43 34 -80 34 -24 0 -24 1 21 64 48 67 57 100 30 110 -24 9
-31 7 -11 -5z"/>
<path d="M3474 2534 c18 -17 18 -17 -41 -98 -24 -32 -43 -62 -43 -66 0 -4 27
-10 60 -12 49 -4 65 -9 91 -34 27 -25 30 -34 26 -67 -10 -71 -85 -122 -204
-137 l-68 -9 70 3 c147 6 253 107 205 196 -16 30 -74 60 -119 62 -22 1 -41 5
-41 9 0 4 15 27 34 52 52 68 60 86 45 103 -6 8 -16 14 -21 14 -5 0 -2 -7 6
-16z"/>
<path d="M2650 2489 c-30 -16 -75 -50 -100 -74 -45 -45 -46 -45 -120 -46 -41
-1 -106 -5 -145 -9 -61 -6 -53 -7 67 -8 l137 -2 63 55 c35 31 87 67 116 81 28
15 52 28 52 30 0 9 -18 2 -70 -27z"/>
<path d="M1561 2450 l-83 -40 -34 21 c-19 11 -42 18 -51 16 -16 -4 -16 -5 0
-6 11 0 32 -11 49 -22 l30 -21 81 36 c89 40 118 56 101 56 -5 0 -47 -18 -93
-40z"/>
<path d="M1708 2467 c-59 -23 -92 -45 -48 -32 44 13 136 54 120 54 -8 0 -41
-10 -72 -22z"/>
<path d="M2860 2456 c0 -7 -13 -30 -30 -51 -30 -38 -34 -45 -25 -45 7 0 75 92
75 101 0 5 -4 9 -10 9 -5 0 -10 -6 -10 -14z"/>
<path d="M2764 2434 c-52 -35 -84 -65 -79 -74 7 -11 105 -11 105 0 0 5 -21 10
-47 12 l-47 3 44 30 c23 17 59 35 79 41 32 11 33 12 10 13 -14 1 -44 -11 -65
-25z"/>
<path d="M1071 2441 c-75 -14 -63 -65 19 -75 l45 -5 -52 16 c-29 9 -53 22 -53
29 0 14 23 20 130 33 l65 8 -60 0 c-33 0 -75 -2 -94 -6z"/>
<path d="M1565 2404 c-27 -13 -54 -25 -60 -27 -26 -10 7 -16 51 -10 41 6 45 8
24 14 -24 6 -24 7 13 23 20 9 37 18 37 21 0 8 -13 4 -65 -21z"/>
<path d="M1108 2413 c-10 -2 -18 -9 -18 -15 0 -7 14 -8 43 -2 23 4 91 7 152 7
102 -2 111 -3 130 -25 13 -15 28 -22 44 -20 20 3 14 9 -34 33 -55 28 -64 29
-179 28 -67 -1 -129 -3 -138 -6z"/>
<path d="M1771 2399 c-242 -17 -123 -20 199 -4 l85 4 -85 -14 -85 -14 135 5
c190 6 284 15 268 25 -16 11 -362 9 -517 -2z"/>
<path d="M3692 2403 c-7 -2 -33 -34 -58 -69 -45 -62 -52 -93 -26 -102 11 -3
11 0 1 16 -10 16 -8 25 16 58 56 76 77 94 110 94 19 0 39 -8 50 -20 16 -17 31
-20 120 -20 75 0 106 -4 121 -15 19 -15 19 -15 -5 -35 -25 -22 -21 -26 10 -10
10 6 19 19 19 30 0 31 -32 40 -142 40 -92 0 -104 2 -116 20 -9 15 -22 20 -50
19 -20 0 -43 -3 -50 -6z"/>
<path d="M1168 2383 c6 -2 18 -2 25 0 6 3 1 5 -13 5 -14 0 -19 -2 -12 -5z"/>
<path d="M1230 2371 c12 -8 5 -11 -30 -12 -30 -1 -36 -3 -17 -6 33 -5 36 -20
5 -26 -21 -4 -21 -4 2 -5 14 -1 54 5 90 11 58 11 63 14 44 25 -29 15 -115 28
-94 13z"/>
<path d="M1820 2370 l-35 -7 43 -2 c23 0 42 4 42 9 0 6 -3 9 -7 9 -5 -1 -24
-5 -43 -9z"/>
<path d="M4263 2370 c-87 -9 -67 -15 52 -15 62 0 108 3 102 6 -20 10 -99 15
-154 9z"/>
<path d="M4680 2370 c-11 -7 -4 -10 26 -10 67 0 71 -17 20 -90 -25 -35 -43
-68 -40 -72 7 -12 69 -10 96 3 23 11 126 139 111 139 -5 -1 -24 -21 -43 -46
-19 -26 -42 -55 -50 -66 -15 -19 -100 -39 -100 -22 0 4 18 34 40 65 24 34 38
64 34 73 -5 14 -15 19 -64 32 -8 2 -22 -1 -30 -6z"/>
<path d="M1380 2360 c-24 -8 -23 -8 8 -9 20 -1 31 3 27 9 -3 6 -7 10 -8 9 -1
-1 -13 -5 -27 -9z"/>
<path d="M4920 2360 c-11 -7 -2 -8 27 -4 43 7 73 -6 73 -30 0 -6 -18 -35 -40
-64 -22 -29 -40 -57 -40 -62 0 -6 17 -10 38 -10 66 0 84 -9 78 -39 -6 -25 -6
-25 9 -6 14 17 14 21 0 34 -8 9 -37 18 -65 21 l-49 5 39 52 c44 57 50 87 21
103 -25 13 -71 13 -91 0z"/>
<path d="M1585 2349 c-38 -5 -74 -11 -80 -14 -13 -6 145 4 215 14 l55 9 -60
-1 c-33 0 -91 -4 -130 -8z"/>
<path d="M4634 2346 c-10 -8 -16 -17 -13 -20 3 -3 14 3 24 14 21 23 17 26 -11
6z"/>
<path d="M2095 2335 c-27 -8 -54 -14 -59 -15 -5 0 -7 -2 -4 -5 5 -5 149 23
157 31 9 9 -45 2 -94 -11z"/>
<path d="M4150 2333 c-80 -53 -107 -110 -75 -159 17 -26 70 -54 102 -54 10 1
1 7 -20 14 -55 20 -77 43 -77 83 0 48 14 68 65 99 25 14 45 28 45 30 0 8 -17
3 -40 -13z"/>
<path d="M4467 2316 c10 -13 20 -20 21 -15 5 12 -17 39 -30 39 -5 0 -1 -11 9
-24z"/>
<path d="M1356 2319 c-61 -9 -87 -19 -45 -18 13 0 58 6 99 13 83 15 40 19 -54
5z"/>
<path d="M1105 2314 c-54 -12 -105 -27 -101 -31 5 -5 156 27 156 33 0 5 -26 3
-55 -2z"/>
<path d="M1965 2288 c-61 -32 -105 -68 -121 -100 -19 -36 -26 -86 -13 -93 5
-4 9 12 9 35 0 33 7 48 38 80 20 22 62 53 92 70 30 16 51 30 45 29 -5 0 -28
-9 -50 -21z"/>
<path d="M4559 2248 c-23 -35 -44 -65 -46 -67 -2 -3 -9 1 -15 7 -7 7 -37 12
-67 13 -43 1 -50 3 -31 9 15 5 -17 7 -80 6 -60 -1 -104 -6 -103 -12 2 -5 63
-11 138 -14 119 -4 136 -7 149 -25 10 -13 15 -15 16 -6 0 7 17 39 38 70 49 72
54 81 48 81 -3 0 -24 -28 -47 -62z"/>
<path d="M1238 2293 c6 -2 18 -2 25 0 6 3 1 5 -13 5 -14 0 -19 -2 -12 -5z"/>
<path d="M3309 2260 c-22 -23 -38 -47 -36 -53 2 -7 26 -13 54 -15 42 -2 55 1
82 23 17 15 31 32 31 38 -1 7 -6 6 -13 -3 -23 -29 -61 -50 -93 -50 -41 0 -47
8 -28 39 24 38 44 51 79 51 17 0 37 -6 44 -12 11 -11 13 -10 9 2 -3 10 -20 16
-47 18 -39 3 -46 -1 -82 -38z"/>
<path d="M3726 2271 c-16 -16 -45 -34 -65 -40 -31 -9 -32 -10 -6 -7 17 2 38 7
49 11 16 7 17 6 7 -13 -8 -15 -8 -22 -1 -22 5 0 10 6 10 14 0 8 17 29 38 47
20 17 29 29 20 26 -9 -3 -18 -1 -20 4 -2 6 -16 -3 -32 -20z m34 5 c0 -2 -7 -7
-16 -10 -8 -3 -12 -2 -9 4 6 10 25 14 25 6z"/>
<path d="M4310 2290 c32 -8 32 -9 -12 -6 -27 2 -48 -1 -48 -6 0 -12 100 -6
103 7 1 6 -16 11 -38 12 l-40 1 35 -8z"/>
<path d="M1142 2280 c-36 -8 -54 -20 -31 -20 8 0 37 7 64 14 53 15 25 20 -33
6z"/>
<path d="M2968 2283 c-52 -4 -60 -8 -83 -37 -39 -51 -34 -56 49 -56 85 0 103
-15 59 -50 -30 -23 -18 -27 15 -4 50 35 8 74 -81 74 l-58 0 23 30 c20 27 27
30 80 30 32 0 58 4 58 10 0 6 -1 9 -2 8 -2 -1 -29 -3 -60 -5z"/>
<path d="M3899 2265 c-70 -47 -56 -75 37 -75 100 0 145 -28 86 -55 -12 -5 -22
-13 -22 -17 0 -13 49 14 55 30 3 8 -2 23 -11 33 -14 15 -32 19 -95 19 -43 0
-80 4 -83 9 -6 9 29 42 70 68 11 6 14 12 9 12 -6 1 -27 -10 -46 -24z"/>
<path d="M940 2265 l-25 -15 30 6 c33 7 58 24 35 24 -8 -1 -26 -7 -40 -15z"/>
<path d="M2156 2260 c-69 -19 -145 -62 -154 -89 -3 -8 13 0 35 17 58 47 139
72 257 79 l101 5 -80 -80 c-98 -99 -122 -114 -199 -122 l-61 -7 50 -1 c72 -2
117 23 225 126 l95 91 -100 0 c-64 -1 -125 -7 -169 -19z"/>
<path d="M2485 2178 c-123 -117 -158 -143 -235 -175 -30 -12 -48 -23 -39 -23
9 0 48 16 87 35 52 27 100 64 184 145 l113 109 69 1 68 0 -24 -32 c-38 -52
-41 -68 -17 -95 13 -12 30 -23 38 -23 10 1 5 7 -11 16 -35 18 -36 47 -5 88 43
58 45 56 -41 56 l-79 0 -108 -102z"/>
<path d="M4456 2249 c-16 -16 -23 -29 -17 -29 14 0 51 36 51 50 0 13 1 13 -34
-21z"/>
<path d="M1015 2245 l-30 -15 40 6 c22 3 47 10 55 15 26 15 -32 10 -65 -6z"/>
<path d="M827 2221 c-21 -10 -44 -24 -50 -30 -7 -7 12 -1 41 12 29 14 56 28
59 31 11 11 -11 5 -50 -13z"/>
<path d="M863 2186 c-39 -19 -89 -51 -111 -71 -40 -35 -82 -106 -82 -136 0 -8
14 14 31 48 35 72 77 109 181 158 40 19 68 34 63 35 -6 0 -43 -15 -82 -34z"/>
<path d="M3710 2177 c0 -15 37 -53 44 -46 2 2 -7 17 -20 32 -14 16 -24 22 -24
14z"/>
<path d="M730 2163 c-51 -36 -102 -118 -114 -183 -7 -40 2 -24 30 55 11 32 35
66 66 97 53 52 57 58 18 31z"/>
<path d="M4549 2140 c13 -11 31 -20 40 -20 9 0 3 8 -17 20 -41 25 -54 25 -23
0z"/>
<path d="M1991 2133 c-1 -24 30 -63 50 -63 7 0 0 9 -14 20 -14 11 -28 30 -30
43 l-4 22 -2 -22z"/>
<path d="M3203 2132 c-6 -4 7 -8 30 -8 30 -1 36 1 22 7 -26 10 -37 10 -52 1z"/>
<path d="M4475 2130 c-16 -7 -17 -9 -3 -9 9 -1 20 4 23 9 7 11 7 11 -20 0z"/>
<path d="M4805 2130 c3 -5 11 -10 16 -10 6 0 7 5 4 10 -3 6 -11 10 -16 10 -6
0 -7 -4 -4 -10z"/>
<path d="M831 2121 c-23 -15 3 -22 96 -26 l88 -4 -75 14 c-71 13 -62 14 175
10 172 -2 220 -1 155 5 -131 11 -422 12 -439 1z"/>
<path d="M3778 2123 c7 -3 16 -2 19 1 4 3 -2 6 -13 5 -11 0 -14 -3 -6 -6z"/>
<path d="M4695 2120 l-70 -6 65 -2 c36 0 74 3 85 8 22 9 22 9 -80 0z"/>
<path d="M2808 2113 c29 -2 74 -2 100 0 26 2 2 3 -53 3 -55 0 -76 -1 -47 -3z"/>
<path d="M3138 2113 c6 -2 18 -2 25 0 6 3 1 5 -13 5 -14 0 -19 -2 -12 -5z"/>
<path d="M3853 2113 c26 -2 67 -2 90 0 23 2 2 3 -48 3 -49 0 -68 -1 -42 -3z"/>
<path d="M4268 2113 c34 -2 90 -2 125 0 34 2 6 3 -63 3 -69 0 -97 -1 -62 -3z"/>
<path d="M4888 2113 c23 -2 59 -2 80 0 20 2 1 4 -43 4 -44 0 -61 -2 -37 -4z"/>
<path d="M1415 2105 c25 -8 115 -11 115 -4 0 5 -28 9 -62 8 -35 0 -58 -2 -53
-4z"/>
<path d="M765 2083 c-3 -10 -1 -19 6 -22 8 -2 8 -5 -1 -11 -18 -11 -1 -33 21
-27 10 3 20 0 21 -5 2 -6 37 -14 78 -18 95 -10 739 -11 762 -2 10 4 -123 6
-295 4 -172 -2 -352 1 -402 5 -72 7 -15 10 279 15 221 4 373 11 379 17 7 7 0
12 -19 16 -16 4 -35 8 -41 11 -7 2 -13 -1 -13 -6 0 -5 10 -10 23 -12 50 -9
-575 -19 -668 -11 l-100 8 3 28 c3 31 -21 39 -33 10z"/>
<path d="M1541 2096 c11 -9 90 -16 84 -6 -3 5 -25 10 -47 10 -23 0 -39 -2 -37
-4z"/>
<path d="M1175 2080 c153 -12 374 -20 295 -10 -36 4 -139 10 -230 13 -131 4
-144 4 -65 -3z"/>
<path d="M1842 2071 c6 -20 68 -68 98 -75 22 -6 21 -5 -5 10 -16 9 -45 30 -64
48 -18 17 -32 25 -29 17z"/>
<path d="M1678 2035 c2 -14 6 -25 8 -25 2 0 4 11 4 25 0 14 -4 25 -9 25 -4 0
-6 -11 -3 -25z"/>
<path d="M1972 1985 c4 -4 25 -11 45 -15 21 -3 37 -10 36 -16 -1 -5 388 -9
1015 -9 1085 1 1574 -5 1417 -15 -54 -4 17 -7 180 -7 149 -1 281 2 295 7 l25
7 -25 6 c-47 11 -604 17 -1720 18 -613 1 -1099 5 -1080 9 26 5 11 8 -55 9 -49
1 -101 4 -115 8 -14 3 -22 2 -18 -2z"/>
<path d="M650 1925 c-7 -20 -10 -39 -7 -41 3 -3 10 11 17 31 7 20 10 39 7 41
-3 3 -10 -11 -17 -31z"/>
<path d="M1780 1950 c-142 -6 -140 -6 60 -7 113 0 198 1 190 3 -35 7 -114 9
-250 4z"/>
<path d="M596 1914 c-4 -14 -5 -29 -2 -31 3 -3 8 7 12 21 3 15 4 29 1 32 -2 3
-8 -7 -11 -22z"/>
<path d="M763 1933 c-40 -5 -62 -28 -43 -46 10 -10 12 -9 7 5 -7 19 19 28 73
27 l35 -1 -30 -7 c-54 -12 -1 -21 123 -21 91 -1 113 -3 98 -12 -13 -7 -64 -9
-155 -5 -96 4 -124 3 -96 -4 21 -5 100 -8 174 -7 120 3 136 5 139 21 3 15 -6
17 -88 17 -60 0 -98 5 -113 14 -26 16 -79 24 -124 19z"/>
<path d="M1467 1930 c-27 -5 -52 -11 -55 -14 -7 -8 7 -7 108 9 62 9 73 13 40
13 -25 0 -67 -4 -93 -8z"/>
<path d="M2078 1910 c-311 -3 -570 -9 -575 -14 -5 -5 28 -6 77 -2 47 3 311 6
588 6 328 0 502 3 502 10 0 6 -6 9 -12 8 -7 -1 -268 -5 -580 -8z"/>
<path d="M2800 1913 c0 -7 415 -7 585 0 39 2 -77 4 -257 5 -181 1 -328 -1
-328 -5z"/>
<path d="M1318 1886 c-67 -27 -134 -66 -168 -96 l-25 -22 25 16 c76 49 154 88
199 102 28 8 51 17 51 19 0 10 -27 4 -82 -19z"/>
<path d="M1458 1883 c6 -2 18 -2 25 0 6 3 1 5 -13 5 -14 0 -19 -2 -12 -5z"/>
<path d="M1365 1866 c-55 -18 -155 -69 -185 -96 l-25 -22 35 22 c53 32 150 76
198 89 23 7 42 14 42 16 0 8 -22 5 -65 -9z"/>
<path d="M575 1850 c-4 -12 -5 -24 -2 -27 3 -2 8 5 12 17 4 12 5 24 2 27 -3 2
-8 -5 -12 -17z"/>
<path d="M620 1846 c-20 -53 -20 -80 0 -32 11 27 18 51 16 54 -3 2 -10 -7 -16
-22z"/>
<path d="M1516 1854 c-26 -26 -108 -135 -105 -139 2 -2 31 31 63 72 59 75 60
75 103 71 24 -2 43 0 43 4 0 15 -88 8 -104 -8z"/>
<path d="M1855 1834 c-9 -20 -14 -38 -11 -41 2 -3 12 11 20 31 12 28 21 36 40
36 32 0 32 -5 1 -81 -23 -59 -25 -79 -5 -79 5 0 7 6 4 14 -3 8 6 42 20 77 14
34 23 66 20 71 -3 4 -20 8 -38 8 -29 0 -36 -5 -51 -36z"/>
<path d="M2020 1855 c-7 -9 -10 -18 -7 -22 4 -3 9 2 13 11 3 9 17 16 30 16 18
0 24 -5 24 -22 0 -16 3 -19 11 -11 7 7 9 19 6 27 -8 21 -60 21 -77 1z"/>
<path d="M2267 1863 c-4 -3 -7 -15 -7 -25 0 -13 8 -18 30 -18 17 0 30 -4 30
-9 0 -5 -11 -34 -26 -66 -14 -32 -23 -63 -20 -70 6 -16 63 -17 73 -2 5 7 20
41 34 77 25 60 29 65 60 68 40 4 60 18 52 38 -4 11 -29 14 -112 14 -59 0 -111
-3 -114 -7z m211 -15 c-3 -7 -21 -14 -40 -16 -35 -3 -37 -6 -65 -75 -27 -66
-32 -72 -61 -75 l-31 -3 29 72 c17 39 30 73 30 75 0 2 -13 4 -29 4 -30 0 -46
12 -34 24 3 3 51 6 106 6 74 0 98 -3 95 -12z"/>
<path d="M2688 1855 c-28 -15 -73 -96 -65 -117 2 -7 10 6 17 29 16 53 49 84
97 93 35 7 35 8 8 8 -16 1 -42 -5 -57 -13z"/>
<path d="M2820 1858 c19 -5 41 -17 48 -26 6 -8 12 -11 12 -4 0 17 -42 42 -70
41 -21 -1 -20 -2 10 -11z"/>
<path d="M3195 1815 c-15 -31 -24 -62 -22 -68 2 -6 12 11 22 38 29 77 30 78
112 73 40 -3 80 -11 90 -18 17 -13 17 -13 0 5 -14 16 -34 21 -97 23 l-79 4
-26 -57z"/>
<path d="M3622 1858 c-5 -7 -12 -24 -16 -38 -5 -19 -2 -18 11 8 17 32 17 32
96 32 58 0 78 -3 75 -12 -3 -7 -29 -16 -59 -19 l-54 -6 56 -1 c57 -2 89 14 74
38 -9 15 -170 13 -183 -2z"/>
<path d="M4014 1851 c-29 -18 -75 -103 -62 -116 3 -3 11 13 18 35 16 48 48 80
92 90 28 7 29 8 8 9 -14 0 -39 -8 -56 -18z"/>
<path d="M4147 1859 c39 -11 63 -46 38 -55 -8 -3 -27 -3 -41 0 -17 5 -23 3
-19 -4 3 -5 24 -10 46 -10 32 0 39 3 39 20 0 29 -36 60 -67 59 -28 -1 -27 -1
4 -10z"/>
<path d="M4433 1809 c-26 -34 -60 -76 -75 -93 -19 -22 -24 -34 -16 -43 15 -18
67 -9 84 16 20 29 74 30 74 1 0 -21 38 -37 65 -26 27 10 16 23 -16 18 -24 -4
-31 0 -36 17 -8 30 -77 30 -93 1 -7 -13 -21 -20 -40 -20 -17 0 -30 3 -30 6 0
4 32 44 71 91 67 80 73 84 107 81 l37 -3 6 -75 6 -75 -1 80 -1 80 -47 3 c-47
3 -47 3 -95 -59z"/>
<path d="M4858 1863 c6 -2 18 -2 25 0 6 3 1 5 -13 5 -14 0 -19 -2 -12 -5z"/>
<path d="M4956 1863 c27 -5 58 -38 49 -52 -11 -18 -44 -12 -55 10 -9 15 -19
19 -43 17 -52 -5 -45 -30 18 -61 43 -21 55 -32 55 -50 0 -13 -5 -28 -12 -35
-7 -7 -9 -12 -5 -12 3 0 14 11 22 24 22 33 5 59 -58 86 -26 12 -45 25 -42 30
11 17 44 11 55 -11 16 -29 74 -23 78 8 4 24 -32 54 -63 52 -19 -2 -19 -2 1 -6z"/>
<path d="M4810 1841 c-13 -25 -13 -48 1 -57 8 -4 9 1 4 15 -4 15 -1 29 11 42
9 10 12 19 6 19 -6 0 -16 -9 -22 -19z"/>
<path d="M2742 1834 c-18 -8 -52 -79 -52 -109 0 -17 5 -25 18 -25 13 0 14 2 3
9 -15 10 -9 40 21 89 23 37 54 42 68 10 10 -23 10 -23 7 2 -1 19 -8 25 -27 27
-14 1 -31 -1 -38 -3z"/>
<path d="M3271 1821 c-17 -31 -13 -41 17 -41 36 0 55 13 50 36 -5 27 -53 31
-67 5z m57 -13 c-3 -7 -17 -14 -31 -16 -21 -3 -26 0 -21 12 7 19 58 22 52 4z"/>
<path d="M4062 1828 c-20 -20 -13 -32 8 -13 11 10 28 15 40 12 11 -3 18 -1 14
4 -8 13 -48 11 -62 -3z"/>
<path d="M1531 1791 c-27 -37 -26 -41 4 -41 14 0 25 6 25 13 0 6 3 22 6 35 9
31 -11 28 -35 -7z m15 -28 c-10 -10 -19 5 -10 18 6 11 8 11 12 0 2 -7 1 -15
-2 -18z"/>
<path d="M1617 1750 l6 -70 -32 0 c-24 0 -31 4 -31 20 0 15 -6 20 -27 19 -24
-2 -25 -2 -5 -6 14 -3 22 -12 22 -24 0 -10 3 -19 8 -20 4 0 15 -2 26 -4 39 -8
46 4 46 81 0 41 -4 74 -9 74 -6 0 -7 -29 -4 -70z"/>
<path d="M1997 1813 c-2 -4 -10 -25 -16 -46 -7 -20 -19 -44 -28 -52 -8 -8 -10
-15 -5 -15 5 0 14 6 19 13 14 18 45 99 39 104 -2 2 -6 1 -9 -4z"/>
<path d="M3396 1794 c-10 -14 -27 -29 -39 -34 -18 -7 -19 -9 -4 -9 19 -1 67
41 67 59 0 16 -6 12 -24 -16z"/>
<path d="M4497 1814 c-4 -4 -4 -18 -1 -30 4 -14 2 -24 -5 -24 -6 0 -8 8 -5 18
5 14 3 14 -11 -3 -15 -18 -15 -20 0 -23 29 -6 45 7 45 38 0 29 -9 38 -23 24z"/>
<path d="M556 1794 c-23 -60 9 -165 54 -179 32 -10 37 3 11 28 -22 21 -23 21
-17 2 6 -18 5 -18 -16 3 -20 19 -23 32 -22 92 0 39 0 70 -2 70 -1 0 -5 -7 -8
-16z"/>
<path d="M2057 1775 c-9 -20 -17 -41 -16 -48 0 -7 9 8 20 32 23 53 20 66 -4
16z"/>
<path d="M2866 1784 c-4 -14 -5 -29 -2 -31 3 -3 8 7 12 21 3 15 4 29 1 32 -2
3 -8 -7 -11 -22z"/>
<path d="M3670 1796 c0 -12 11 -16 45 -16 43 0 60 -12 33 -23 -8 -3 -6 -6 5
-6 12 -1 17 7 17 24 0 24 -3 26 -38 24 -21 -2 -43 1 -50 5 -7 4 -12 1 -12 -8z"/>
<path d="M3570 1736 c-12 -30 -19 -60 -16 -65 8 -12 156 -11 156 1 0 4 -31 8
-70 8 -39 0 -70 4 -70 10 0 5 7 28 16 50 9 23 14 43 12 46 -3 2 -15 -20 -28
-50z"/>
<path d="M4030 1766 c-12 -34 -13 -66 -1 -66 5 0 7 9 4 19 -3 10 0 29 7 41 6
12 9 24 6 27 -3 3 -10 -6 -16 -21z"/>
<path d="M1822 1755 c-16 -35 -15 -50 5 -66 15 -13 15 -12 6 5 -7 13 -8 29 -1
48 13 37 5 46 -10 13z"/>
<path d="M2776 1748 c-10 -20 -25 -39 -34 -42 -13 -4 -12 -4 2 -3 23 2 60 50
54 68 -3 8 -12 -1 -22 -23z"/>
<path d="M4830 1773 c0 -4 19 -16 41 -25 37 -16 40 -19 28 -34 -12 -15 -12
-17 1 -12 27 9 16 32 -27 56 -24 13 -43 20 -43 15z"/>
<path d="M585 1730 c-3 -16 -2 -37 4 -47 8 -14 10 -8 11 30 0 54 -5 60 -15 17z"/>
<path d="M1085 1740 c-27 -30 -12 -34 15 -5 13 14 19 25 13 25 -5 0 -18 -9
-28 -20z"/>
<path d="M3233 1721 c-14 -35 -20 -41 -46 -41 -26 0 -29 3 -23 25 8 31 -2 33
-13 3 -21 -54 48 -67 79 -15 10 17 24 37 29 44 8 8 8 14 0 18 -5 4 -17 -11
-26 -34z"/>
<path d="M3653 1752 c-6 -4 -13 -16 -15 -27 -2 -15 3 -21 21 -23 15 -2 21 0
16 7 -3 6 -11 8 -17 5 -6 -4 -8 1 -6 12 2 10 14 21 28 25 20 6 21 7 5 8 -11 0
-25 -3 -32 -7z"/>
<path d="M4090 1725 c-19 -14 -27 -25 -19 -25 16 1 64 38 57 45 -2 3 -20 -6
-38 -20z"/>
<path d="M4157 1731 c7 -27 -29 -51 -93 -61 l-59 -9 58 3 c39 2 67 9 85 23 31
23 39 48 19 56 -10 4 -13 0 -10 -12z"/>
<path d="M4770 1742 c0 -5 14 -7 31 -4 24 4 31 0 36 -17 3 -11 12 -21 20 -21
12 0 12 2 -1 16 -9 8 -16 20 -16 25 0 5 -16 9 -35 9 -19 0 -35 -4 -35 -8z"/>
<path d="M1084 1695 c-52 -51 -64 -57 -40 -20 9 14 13 25 8 25 -7 0 -42 -52
-42 -64 0 -19 32 1 80 49 65 66 60 74 -6 10z"/>
<path d="M2837 1716 c-32 -48 -154 -60 -199 -19 -10 9 -18 11 -18 5 0 -24 62
-44 121 -40 58 4 89 21 110 60 14 26 4 22 -14 -6z"/>
<path d="M1465 1700 c-20 -22 -65 -27 -65 -8 0 9 -3 9 -11 1 -18 -18 -1 -32
33 -28 28 3 93 55 70 55 -5 0 -17 -9 -27 -20z"/>
<path d="M2000 1688 c-28 -15 -47 -18 -95 -14 -41 4 -55 3 -45 -4 27 -17 112
-11 148 10 17 11 32 22 32 25 0 3 -1 4 -2 4 -2 -1 -19 -10 -38 -21z"/>
<path d="M3736 1699 c3 -6 0 -16 -7 -21 -12 -8 -11 -9 1 -5 18 4 27 37 10 37
-6 0 -8 -5 -4 -11z"/>
<path d="M3950 1701 c0 -10 39 -36 45 -29 2 2 -8 11 -21 21 -13 10 -24 13 -24
8z"/>
<path d="M4772 1700 c2 -8 15 -21 29 -27 27 -14 117 -17 137 -5 7 5 -18 8 -57
8 -55 -1 -73 3 -91 19 -16 14 -22 16 -18 5z"/>
<path d="M2725 1370 c-1 -21 3 -36 7 -34 10 6 11 61 1 67 -5 3 -8 -12 -8 -33z"/>
<path d="M3375 1402 c-12 -8 -14 -46 -4 -57 4 -3 9 10 11 29 2 20 4 36 3 36 0
0 -5 -4 -10 -8z"/>
<path d="M1506 1348 c-37 -75 -43 -143 -21 -223 19 -73 47 -115 75 -115 28 0
29 10 9 65 -11 28 -17 39 -14 25 3 -14 8 -37 11 -52 11 -47 -21 -34 -47 20
-17 34 -24 70 -27 129 -4 72 -1 89 22 139 34 73 27 83 -8 12z"/>
<path d="M1690 1375 c-13 -13 -31 -27 -41 -30 -21 -7 -29 -27 -22 -55 4 -17
11 -20 27 -15 11 4 29 7 39 8 9 1 17 7 17 14 0 17 -10 16 -34 -2 -27 -21 -36
-19 -36 8 0 14 11 28 29 39 16 9 34 26 40 37 15 28 10 27 -19 -4z"/>
<path d="M1760 1250 c0 -84 3 -150 7 -146 8 8 7 286 -2 294 -3 3 -5 -64 -5
-148z"/>
<path d="M1922 1380 c-6 -10 -24 -25 -39 -32 -21 -10 -29 -22 -31 -46 -4 -35
11 -42 49 -22 18 10 19 7 19 -85 0 -57 4 -95 10 -95 13 0 13 197 0 205 -5 3
-21 -2 -35 -11 -14 -9 -26 -14 -26 -10 -1 3 -2 12 -3 19 -1 6 16 28 38 48 23
21 39 39 36 43 -3 3 -11 -3 -18 -14z"/>
<path d="M1983 1250 c0 -82 4 -150 8 -150 5 0 9 68 9 150 0 83 -4 150 -8 150
-5 0 -9 -67 -9 -150z"/>
<path d="M2070 1392 c0 -7 5 -23 11 -35 7 -11 17 -62 24 -112 12 -89 13 -89
14 -30 0 33 -6 81 -14 108 -16 53 -34 89 -35 69z"/>
<path d="M2138 1348 c20 -38 28 -71 32 -132 5 -79 6 -80 13 -34 5 29 4 63 -3
90 -14 51 -50 128 -61 128 -5 0 4 -23 19 -52z"/>
<path d="M2360 1390 c-8 -5 -12 -11 -10 -14 3 -2 14 2 24 10 22 15 10 19 -14
4z"/>
<path d="M2477 1382 c58 -46 46 -110 -33 -176 -25 -21 -43 -40 -41 -43 9 -8
105 88 117 117 7 16 9 41 6 55 -7 26 -43 65 -60 65 -6 0 -1 -8 11 -18z"/>
<path d="M2576 1383 c-2 -10 -7 -43 -10 -73 -8 -69 8 -38 19 38 7 50 2 71 -9
35z"/>
<path d="M2849 1345 c-19 -31 -38 -64 -44 -74 -5 -9 -20 -30 -31 -46 -16 -22
-19 -36 -13 -52 7 -20 15 -23 63 -23 52 0 55 -1 59 -27 4 -26 4 -26 6 4 l1 32
-57 3 c-55 3 -58 4 -55 28 2 14 29 64 59 113 31 48 53 90 51 93 -3 3 -21 -20
-39 -51z"/>
<path d="M3030 1381 c0 -25 6 -27 13 -6 4 8 2 17 -3 20 -6 4 -10 -3 -10 -14z"/>
<path d="M3592 1375 c0 -16 2 -22 5 -12 2 9 2 23 0 30 -3 6 -5 -1 -5 -18z"/>
<path d="M3791 1387 c0 -10 -19 -49 -40 -85 -22 -37 -42 -85 -45 -107 -5 -34
-3 -32 15 20 11 33 34 80 51 104 17 26 27 52 25 65 -3 17 -5 17 -6 3z"/>
<path d="M3853 1382 c-24 -18 -41 -76 -26 -85 5 -4 10 8 10 25 0 22 8 38 27
55 31 27 22 31 -11 5z"/>
<path d="M3982 1377 c26 -21 32 -37 29 -85 -1 -13 -24 -44 -58 -77 -32 -30
-54 -55 -50 -55 16 0 105 92 117 121 7 16 9 40 6 54 -7 29 -40 65 -58 65 -7 0
-1 -10 14 -23z"/>
<path d="M4074 1375 c-32 -32 -30 -78 3 -83 21 -3 68 36 57 47 -3 3 -13 -5
-23 -18 -12 -16 -24 -22 -35 -18 -25 10 -19 43 15 71 17 14 25 26 19 26 -6 0
-22 -11 -36 -25z"/>
<path d="M4205 1385 c10 -8 25 -28 31 -43 7 -15 13 -21 13 -14 2 22 -18 51
-42 62 -21 11 -21 11 -2 -5z"/>
<path d="M2943 1355 c0 -22 2 -30 4 -17 2 12 2 30 0 40 -3 9 -5 -1 -4 -23z"/>
<path d="M1565 1360 c-4 -12 -5 -24 -2 -27 3 -2 8 5 12 17 4 12 5 24 2 27 -3
2 -8 -5 -12 -17z"/>
<path d="M3547 1343 c-11 -13 -17 -27 -14 -30 3 -2 13 7 23 21 22 34 15 42 -9
9z"/>
<path d="M2324 1334 c-12 -47 39 -60 74 -19 16 18 18 25 8 25 -8 0 -18 -9 -21
-20 -7 -21 -14 -24 -39 -14 -11 4 -14 13 -10 30 3 13 4 24 0 24 -3 0 -9 -12
-12 -26z"/>
<path d="M3180 1350 c0 -5 5 -10 10 -10 6 0 10 5 10 10 0 6 -4 10 -10 10 -5 0
-10 -4 -10 -10z"/>
<path d="M3016 1319 c-3 -17 -6 -49 -6 -70 0 -36 2 -39 29 -39 16 0 34 7 41
15 14 17 0 21 -17 4 -7 -7 -19 -9 -28 -5 -13 5 -15 16 -9 66 7 63 1 82 -10 29z"/>
<path d="M2438 1329 c21 -23 14 -38 -53 -109 -36 -38 -65 -74 -65 -79 0 -6 19
10 43 36 23 25 55 59 70 74 31 31 35 79 7 87 -12 4 -13 2 -2 -9z"/>
<path d="M2623 1324 c-3 -8 -1 -20 6 -27 8 -8 11 -4 11 16 0 30 -7 35 -17 11z"/>
<path d="M3081 1328 c0 -10 -1 -21 -1 -25 0 -4 13 -6 29 -5 42 5 81 -33 88
-84 4 -33 1 -45 -22 -72 -15 -18 -33 -32 -41 -32 -8 0 -14 -5 -14 -10 0 -20
60 20 75 50 38 73 -7 160 -84 160 -11 0 -22 8 -24 18 -4 16 -5 16 -6 0z"/>
<path d="M3454 1287 c-28 -48 -53 -127 -40 -127 2 0 12 24 20 53 8 28 27 69
41 90 14 20 22 37 17 37 -4 0 -22 -24 -38 -53z"/>
<path d="M3695 1316 c-32 -49 -65 -141 -64 -181 l1 -40 8 45 c10 55 37 125 63
163 10 16 17 31 14 33 -3 3 -13 -6 -22 -20z"/>
<path d="M3890 1331 c0 -5 -8 -17 -17 -27 -12 -12 -13 -16 -4 -13 19 7 47 49
32 49 -6 0 -11 -4 -11 -9z"/>
<path d="M3946 1316 c5 -22 -3 -36 -59 -93 -58 -61 -92 -123 -68 -123 4 0 11
12 14 28 3 15 33 55 66 89 60 60 77 102 51 118 -7 4 -9 -2 -4 -19z"/>
<path d="M4170 1320 c14 -26 4 -44 -60 -103 -29 -27 -50 -50 -48 -53 9 -8 118
107 124 131 6 26 -1 45 -17 45 -6 0 -6 -8 1 -20z"/>
<path d="M1550 1305 c0 -8 2 -15 4 -15 2 0 6 7 10 15 3 8 1 15 -4 15 -6 0 -10
-7 -10 -15z"/>
<path d="M2685 1291 c22 -10 46 -29 52 -42 8 -17 12 -19 12 -7 1 22 -55 68
-82 68 -16 0 -11 -5 18 -19z"/>
<path d="M2943 1270 c0 -25 2 -35 4 -22 2 12 2 32 0 45 -2 12 -4 2 -4 -23z"/>
<path d="M4235 1288 c-4 -15 -29 -48 -56 -73 -27 -25 -49 -48 -49 -50 0 -3 12
-5 28 -4 21 0 23 2 9 8 -16 6 -13 10 18 35 39 31 69 80 62 99 -3 7 -8 0 -12
-15z"/>
<path d="M2870 1285 c-9 -10 -9 -15 -1 -15 6 0 11 -13 11 -30 0 -23 -4 -30
-20 -30 -21 0 -27 15 -10 25 6 3 10 12 10 18 0 13 -39 -32 -40 -45 0 -5 16 -8
35 -8 l35 0 0 50 c0 55 -2 57 -20 35z"/>
<path d="M3502 1263 c-23 -43 -43 -141 -32 -148 4 -2 10 18 13 45 3 27 15 68
26 91 26 54 19 64 -7 12z"/>
<path d="M1538 1233 c-3 -21 -1 -49 3 -63 5 -18 8 -7 8 38 1 69 -4 82 -11 25z"/>
<path d="M1703 1200 c0 -41 2 -58 4 -37 2 20 2 54 0 75 -2 20 -4 3 -4 -38z"/>
<path d="M3231 1223 c2 -24 2 -25 6 -5 4 20 10 22 59 22 51 0 54 -2 54 -25 0
-22 -4 -24 -57 -28 l-58 -3 63 -2 62 -2 0 35 0 35 -65 0 c-65 0 -65 0 -64 -27z"/>
<path d="M2614 1229 c-3 -6 -17 -9 -30 -6 -13 2 -24 0 -24 -4 0 -15 57 -10 70
6 8 9 9 15 2 15 -6 0 -14 -5 -18 -11z"/>
<path d="M2672 1221 c11 -17 11 -25 0 -42 -11 -18 -11 -20 0 -17 7 3 13 19 13
38 0 19 -6 35 -13 38 -11 3 -11 1 0 -17z"/>
<path d="M3130 1219 c21 -37 -27 -66 -60 -36 -12 10 -12 9 -1 -5 31 -42 95 -3
71 42 -6 11 -13 20 -16 20 -2 0 0 -9 6 -21z"/>
<path d="M2962 1204 c9 -3 19 -15 22 -27 4 -18 4 -18 3 3 -1 17 -8 25 -22 27
-14 1 -15 0 -3 -3z"/>
<path d="M2545 1180 c-7 -12 22 -58 46 -70 34 -18 34 -10 1 16 -23 18 -32 33
-29 45 5 20 -7 26 -18 9z"/>
<path d="M2616 1176 c3 -9 13 -16 22 -16 8 0 13 1 11 3 -2 1 -12 9 -22 16 -15
12 -17 12 -11 -3z"/>
<path d="M3004 1163 c7 -28 39 -63 58 -63 6 0 -4 13 -21 29 -33 31 -38 46 -18
54 7 3 4 6 -7 6 -15 1 -17 -4 -12 -26z"/>
<path d="M2503 1159 c11 -7 16 -18 13 -35 -3 -13 0 -24 5 -24 16 0 10 57 -7
64 -24 9 -31 7 -11 -5z"/>
<path d="M2730 1151 c-6 -12 -7 -21 -1 -21 10 0 24 30 17 37 -2 3 -9 -5 -16
-16z"/>
<path d="M4011 1149 c6 -11 8 -27 5 -35 -3 -9 1 -14 14 -14 11 0 20 4 20 9 0
5 3 18 6 28 3 10 -2 7 -10 -7 l-15 -25 -1 26 c0 15 -7 29 -15 33 -13 5 -14 2
-4 -15z"/>
<path d="M2944 1145 c-3 -8 -4 -20 -1 -27 3 -7 6 -3 6 9 1 12 7 24 14 26 9 4
9 6 -1 6 -7 1 -15 -6 -18 -14z"/>
<path d="M2092 1098 c-19 -81 -19 -83 5 -86 15 -2 25 4 33 20 10 21 10 21 -3
6 -8 -10 -22 -18 -31 -18 -17 0 -22 15 -7 24 5 3 12 22 15 42 4 19 10 42 13
50 3 8 1 14 -4 14 -5 0 -15 -24 -21 -52z"/>
<path d="M3688 1125 c-3 -14 -2 -25 2 -25 4 0 10 11 12 25 3 14 2 25 -2 25 -4
0 -10 -11 -12 -25z"/>
<path d="M3400 1120 c0 -11 4 -20 9 -20 5 0 7 9 4 20 -3 11 -7 20 -9 20 -2 0
-4 -9 -4 -20z"/>
<path d="M2151 1099 c-14 -42 -7 -49 9 -9 7 17 10 33 8 36 -3 3 -11 -9 -17
-27z"/>
<path d="M2685 1110 c-3 -5 -2 -10 4 -10 5 0 13 5 16 10 3 6 2 10 -4 10 -5 0
-13 -4 -16 -10z"/>
</g>
</svg>
